<svg width="150" height="29" viewBox="0 0 150 29" fill="none" xmlns="http://www.w3.org/2000/svg">
<g clip-path="url(#clip0_303_40)">
<path d="M31.7075 20.18C29.8835 20.18 28.2515 19.748 26.8115 18.884C25.3715 17.996 24.2315 16.796 23.3915 15.284C22.5515 13.772 22.1315 12.068 22.1315 10.172C22.1315 8.252 22.5635 6.536 23.4275 5.024C24.3155 3.512 25.5155 2.324 27.0275 1.46C28.5395 0.571998 30.2435 0.127998 32.1395 0.127998C34.0115 0.127998 35.6915 0.571998 37.1795 1.46C38.6915 2.324 39.8795 3.512 40.7435 5.024C41.6315 6.536 42.0875 8.252 42.1115 10.172L40.8875 10.784C40.8875 12.56 40.4795 14.156 39.6635 15.572C38.8715 16.988 37.7795 18.116 36.3875 18.956C35.0195 19.772 33.4595 20.18 31.7075 20.18ZM32.1395 17.444C33.4835 17.444 34.6715 17.132 35.7035 16.508C36.7595 15.86 37.5875 14.984 38.1875 13.88C38.8115 12.776 39.1235 11.54 39.1235 10.172C39.1235 8.78 38.8115 7.544 38.1875 6.464C37.5875 5.36 36.7595 4.484 35.7035 3.836C34.6715 3.188 33.4835 2.864 32.1395 2.864C30.8195 2.864 29.6195 3.188 28.5395 3.836C27.4835 4.484 26.6435 5.36 26.0195 6.464C25.3955 7.544 25.0835 8.78 25.0835 10.172C25.0835 11.54 25.3955 12.776 26.0195 13.88C26.6435 14.984 27.4835 15.86 28.5395 16.508C29.6195 17.132 30.8195 17.444 32.1395 17.444ZM40.5635 20C40.1315 20 39.7595 19.868 39.4475 19.604C39.1595 19.316 39.0155 18.944 39.0155 18.488V12.548L39.6995 9.416L42.1115 10.172V18.488C42.1115 18.944 41.9675 19.316 41.6795 19.604C41.3915 19.868 41.0195 20 40.5635 20ZM48.8357 7.796C48.8837 6.332 49.2557 5.024 49.9517 3.872C50.6717 2.696 51.6077 1.772 52.7597 1.1C53.9357 0.427999 55.2197 0.0919988 56.6117 0.0919988C57.8357 0.0919988 58.7597 0.271999 59.3837 0.631998C60.0317 0.991999 60.2717 1.484 60.1037 2.108C60.0317 2.444 59.8757 2.684 59.6357 2.828C59.4197 2.972 59.1557 3.044 58.8437 3.044C58.5557 3.044 58.2197 3.02 57.8357 2.972C56.4197 2.804 55.1597 2.9 54.0557 3.26C52.9757 3.596 52.1117 4.16 51.4637 4.952C50.8157 5.744 50.4917 6.692 50.4917 7.796H48.8357ZM49.0157 20C48.5357 20 48.1637 19.868 47.8997 19.604C47.6357 19.34 47.5037 18.968 47.5037 18.488V1.82C47.5037 1.34 47.6357 0.967999 47.8997 0.704C48.1637 0.439999 48.5357 0.307998 49.0157 0.307998C49.4957 0.307998 49.8557 0.439999 50.0957 0.704C50.3597 0.967999 50.4917 1.34 50.4917 1.82V18.488C50.4917 18.968 50.3597 19.34 50.0957 19.604C49.8557 19.868 49.4957 20 49.0157 20ZM71.399 20.18C69.575 20.18 67.943 19.748 66.503 18.884C65.063 17.996 63.923 16.796 63.083 15.284C62.243 13.772 61.823 12.068 61.823 10.172C61.823 8.252 62.255 6.536 63.119 5.024C64.007 3.512 65.207 2.324 66.719 1.46C68.231 0.571998 69.935 0.127998 71.831 0.127998C73.703 0.127998 75.383 0.571998 76.871 1.46C78.383 2.324 79.571 3.512 80.435 5.024C81.323 6.536 81.779 8.252 81.803 10.172L80.579 10.784C80.579 12.56 80.171 14.156 79.355 15.572C78.563 16.988 77.471 18.116 76.079 18.956C74.711 19.772 73.151 20.18 71.399 20.18ZM71.831 17.444C73.175 17.444 74.363 17.132 75.395 16.508C76.451 15.86 77.279 14.984 77.879 13.88C78.503 12.776 78.815 11.54 78.815 10.172C78.815 8.78 78.503 7.544 77.879 6.464C77.279 5.36 76.451 4.484 75.395 3.836C74.363 3.188 73.175 2.864 71.831 2.864C70.511 2.864 69.311 3.188 68.231 3.836C67.175 4.484 66.335 5.36 65.711 6.464C65.087 7.544 64.775 8.78 64.775 10.172C64.775 11.54 65.087 12.776 65.711 13.88C66.335 14.984 67.175 15.86 68.231 16.508C69.311 17.132 70.511 17.444 71.831 17.444ZM80.255 20C79.823 20 79.451 19.868 79.139 19.604C78.851 19.316 78.707 18.944 78.707 18.488V12.548L79.391 9.416L81.803 10.172V18.488C81.803 18.944 81.659 19.316 81.371 19.604C81.083 19.868 80.711 20 80.255 20ZM88.7431 28.424C88.2631 28.424 87.8791 28.28 87.5911 27.992C87.3271 27.728 87.1951 27.356 87.1951 26.876V10.064C87.2191 8.192 87.6631 6.512 88.5271 5.024C89.4151 3.512 90.6031 2.324 92.0911 1.46C93.5791 0.571998 95.2591 0.127998 97.1311 0.127998C99.0511 0.127998 100.755 0.571998 102.243 1.46C103.755 2.324 104.943 3.512 105.807 5.024C106.695 6.536 107.139 8.252 107.139 10.172C107.139 12.068 106.719 13.772 105.879 15.284C105.063 16.796 103.935 17.996 102.495 18.884C101.055 19.748 99.4231 20.18 97.5991 20.18C96.0391 20.18 94.6231 19.856 93.3511 19.208C92.0791 18.536 91.0471 17.66 90.2551 16.58V26.876C90.2551 27.356 90.1111 27.728 89.8231 27.992C89.5351 28.28 89.1751 28.424 88.7431 28.424ZM97.1311 17.444C98.4751 17.444 99.6751 17.132 100.731 16.508C101.811 15.86 102.651 14.984 103.251 13.88C103.875 12.776 104.187 11.54 104.187 10.172C104.187 8.78 103.875 7.544 103.251 6.464C102.651 5.36 101.811 4.484 100.731 3.836C99.6751 3.188 98.4751 2.864 97.1311 2.864C95.8351 2.864 94.6471 3.188 93.5671 3.836C92.5111 4.484 91.6831 5.36 91.0831 6.464C90.4831 7.544 90.1831 8.78 90.1831 10.172C90.1831 11.54 90.4831 12.776 91.0831 13.88C91.6831 14.984 92.5111 15.86 93.5671 16.508C94.6231 17.132 95.8111 17.444 97.1311 17.444ZM113.945 7.796C113.993 6.332 114.365 5.024 115.061 3.872C115.781 2.696 116.717 1.772 117.869 1.1C119.045 0.427999 120.329 0.0919988 121.721 0.0919988C122.945 0.0919988 123.869 0.271999 124.493 0.631998C125.141 0.991999 125.381 1.484 125.213 2.108C125.141 2.444 124.985 2.684 124.745 2.828C124.529 2.972 124.265 3.044 123.953 3.044C123.665 3.044 123.329 3.02 122.945 2.972C121.529 2.804 120.269 2.9 119.165 3.26C118.085 3.596 117.221 4.16 116.573 4.952C115.925 5.744 115.601 6.692 115.601 7.796H113.945ZM114.125 20C113.645 20 113.273 19.868 113.009 19.604C112.745 19.34 112.613 18.968 112.613 18.488V1.82C112.613 1.34 112.745 0.967999 113.009 0.704C113.273 0.439999 113.645 0.307998 114.125 0.307998C114.605 0.307998 114.965 0.439999 115.205 0.704C115.469 0.967999 115.601 1.34 115.601 1.82V18.488C115.601 18.968 115.469 19.34 115.205 19.604C114.965 19.868 114.605 20 114.125 20ZM136.94 20.18C134.996 20.18 133.268 19.748 131.756 18.884C130.268 18.02 129.092 16.832 128.228 15.32C127.364 13.808 126.932 12.092 126.932 10.172C126.932 8.228 127.364 6.5 128.228 4.988C129.092 3.476 130.268 2.288 131.756 1.424C133.268 0.559999 134.996 0.127998 136.94 0.127998C138.86 0.127998 140.564 0.559999 142.052 1.424C143.54 2.288 144.716 3.476 145.58 4.988C146.444 6.5 146.888 8.228 146.912 10.172C146.912 12.092 146.48 13.808 145.616 15.32C144.752 16.832 143.564 18.02 142.052 18.884C140.564 19.748 138.86 20.18 136.94 20.18ZM136.94 17.444C138.284 17.444 139.484 17.132 140.54 16.508C141.596 15.86 142.424 14.996 143.024 13.916C143.624 12.812 143.924 11.564 143.924 10.172C143.924 8.78 143.624 7.532 143.024 6.428C142.424 5.324 141.596 4.46 140.54 3.836C139.484 3.188 138.284 2.864 136.94 2.864C135.596 2.864 134.384 3.188 133.304 3.836C132.248 4.46 131.408 5.324 130.784 6.428C130.184 7.532 129.884 8.78 129.884 10.172C129.884 11.564 130.184 12.812 130.784 13.916C131.408 14.996 132.248 15.86 133.304 16.508C134.384 17.132 135.596 17.444 136.94 17.444Z" fill="#75A398"/>
<line x1="2.14737" y1="0.0337963" x2="18.1474" y2="19.0338" stroke="black" stroke-width="3"/>
<line x1="9.81313" y1="9.43431" x2="17.8131" y2="-0.917248" stroke="black" stroke-width="3"/>
<line x1="1.6742" y1="18.7737" x2="6.91212" y2="12.7269" stroke="#DF7E0E" stroke-width="3"/>
</g>
<defs>
<clipPath id="clip0_303_40">
<rect width="150" height="29" fill="white"/>
</clipPath>
</defs>
</svg>
