<svg width="180" height="42" viewBox="0 0 180 42" fill="none" xmlns="http://www.w3.org/2000/svg">
<path d="M21 6V21" stroke="#DC5431" stroke-width="4"/>
<path d="M3 2V23" stroke="#DC5431" stroke-width="4"/>
<path d="M1 3.23794L17.999 3.05407" stroke="#B13516" stroke-width="4"/>
<path d="M1 21.2379L22.9987 21" stroke="#B13516" stroke-width="4"/>
<path d="M36.0723 1.145V5.165H29.9223V23H24.8523V5.165H18.7023V1.145H36.0723ZM56.099 23H52.169C51.729 23 51.364 22.9 51.074 22.7C50.794 22.49 50.599 22.225 50.489 21.905L49.199 18.095H40.889L39.599 21.905C39.499 22.185 39.304 22.44 39.014 22.67C38.724 22.89 38.369 23 37.949 23H33.989L42.449 1.145H47.639L56.099 23ZM42.059 14.645H48.029L46.019 8.66C45.889 8.28 45.734 7.835 45.554 7.325C45.384 6.805 45.214 6.245 45.044 5.645C44.884 6.255 44.719 6.82 44.549 7.34C44.379 7.86 44.219 8.31 44.069 8.69L42.059 14.645ZM62.9481 14.915V23H57.8781V1.145H64.9881C66.5681 1.145 67.9131 1.31 69.0231 1.64C70.1431 1.96 71.0531 2.41 71.7531 2.99C72.4631 3.57 72.9781 4.255 73.2981 5.045C73.6181 5.835 73.7781 6.695 73.7781 7.625C73.7781 8.335 73.6831 9.005 73.4931 9.635C73.3031 10.265 73.0181 10.85 72.6381 11.39C72.2681 11.92 71.8081 12.395 71.2581 12.815C70.7181 13.235 70.0931 13.58 69.3831 13.85C69.7231 14.02 70.0381 14.23 70.3281 14.48C70.6281 14.73 70.8881 15.035 71.1081 15.395L75.7581 23H71.1681C70.3181 23 69.7081 22.68 69.3381 22.04L65.7081 15.695C65.5481 15.415 65.3581 15.215 65.1381 15.095C64.9281 14.975 64.6281 14.915 64.2381 14.915H62.9481ZM62.9481 11.42H64.9881C65.6781 11.42 66.2631 11.335 66.7431 11.165C67.2331 10.985 67.6331 10.74 67.9431 10.43C68.2531 10.12 68.4781 9.76 68.6181 9.35C68.7581 8.93 68.8281 8.48 68.8281 8C68.8281 7.04 68.5131 6.29 67.8831 5.75C67.2631 5.21 66.2981 4.94 64.9881 4.94H62.9481V11.42ZM98.1693 23H94.2393C93.7993 23 93.4343 22.9 93.1443 22.7C92.8643 22.49 92.6693 22.225 92.5593 21.905L91.2693 18.095H82.9593L81.6693 21.905C81.5693 22.185 81.3743 22.44 81.0843 22.67C80.7943 22.89 80.4393 23 80.0193 23H76.0593L84.5193 1.145H89.7093L98.1693 23ZM84.1293 14.645H90.0993L88.0893 8.66C87.9593 8.28 87.8043 7.835 87.6243 7.325C87.4543 6.805 87.2843 6.245 87.1143 5.645C86.9543 6.255 86.7893 6.82 86.6193 7.34C86.4493 7.86 86.2893 8.31 86.1393 8.69L84.1293 14.645ZM105.018 15.695V23H99.9484V1.145H107.658C109.198 1.145 110.518 1.33 111.618 1.7C112.728 2.06 113.638 2.56 114.348 3.2C115.068 3.84 115.598 4.595 115.938 5.465C116.278 6.335 116.448 7.275 116.448 8.285C116.448 9.375 116.273 10.375 115.923 11.285C115.573 12.195 115.038 12.975 114.318 13.625C113.598 14.275 112.683 14.785 111.573 15.155C110.473 15.515 109.168 15.695 107.658 15.695H105.018ZM105.018 11.87H107.658C108.978 11.87 109.928 11.555 110.508 10.925C111.088 10.295 111.378 9.415 111.378 8.285C111.378 7.785 111.303 7.33 111.153 6.92C111.003 6.51 110.773 6.16 110.463 5.87C110.163 5.57 109.778 5.34 109.308 5.18C108.848 5.02 108.298 4.94 107.658 4.94H105.018V11.87ZM124.149 14.915V23H119.079V1.145H126.189C127.769 1.145 129.114 1.31 130.224 1.64C131.344 1.96 132.254 2.41 132.954 2.99C133.664 3.57 134.179 4.255 134.499 5.045C134.819 5.835 134.979 6.695 134.979 7.625C134.979 8.335 134.884 9.005 134.694 9.635C134.504 10.265 134.219 10.85 133.839 11.39C133.469 11.92 133.009 12.395 132.459 12.815C131.919 13.235 131.294 13.58 130.584 13.85C130.924 14.02 131.239 14.23 131.529 14.48C131.829 14.73 132.089 15.035 132.309 15.395L136.959 23H132.369C131.519 23 130.909 22.68 130.539 22.04L126.909 15.695C126.749 15.415 126.559 15.215 126.339 15.095C126.129 14.975 125.829 14.915 125.439 14.915H124.149ZM124.149 11.42H126.189C126.879 11.42 127.464 11.335 127.944 11.165C128.434 10.985 128.834 10.74 129.144 10.43C129.454 10.12 129.679 9.76 129.819 9.35C129.959 8.93 130.029 8.48 130.029 8C130.029 7.04 129.714 6.29 129.084 5.75C128.464 5.21 127.499 4.94 126.189 4.94H124.149V11.42ZM159.839 12.065C159.839 13.645 159.564 15.115 159.014 16.475C158.474 17.835 157.709 19.02 156.719 20.03C155.729 21.03 154.534 21.815 153.134 22.385C151.744 22.955 150.199 23.24 148.499 23.24C146.799 23.24 145.249 22.955 143.849 22.385C142.449 21.815 141.249 21.03 140.249 20.03C139.259 19.02 138.489 17.835 137.939 16.475C137.399 15.115 137.129 13.645 137.129 12.065C137.129 10.485 137.399 9.015 137.939 7.655C138.489 6.295 139.259 5.115 140.249 4.115C141.249 3.115 142.449 2.33 143.849 1.76C145.249 1.19 146.799 0.904999 148.499 0.904999C150.199 0.904999 151.744 1.195 153.134 1.775C154.534 2.345 155.729 3.13 156.719 4.13C157.709 5.13 158.474 6.31 159.014 7.67C159.564 9.03 159.839 10.495 159.839 12.065ZM154.649 12.065C154.649 10.985 154.509 10.015 154.229 9.155C153.949 8.285 153.544 7.55 153.014 6.95C152.494 6.35 151.854 5.89 151.094 5.57C150.334 5.25 149.469 5.09 148.499 5.09C147.519 5.09 146.644 5.25 145.874 5.57C145.114 5.89 144.469 6.35 143.939 6.95C143.419 7.55 143.019 8.285 142.739 9.155C142.459 10.015 142.319 10.985 142.319 12.065C142.319 13.155 142.459 14.135 142.739 15.005C143.019 15.865 143.419 16.595 143.939 17.195C144.469 17.795 145.114 18.255 145.874 18.575C146.644 18.885 147.519 19.04 148.499 19.04C149.469 19.04 150.334 18.885 151.094 18.575C151.854 18.255 152.494 17.795 153.014 17.195C153.544 16.595 153.949 15.865 154.229 15.005C154.509 14.135 154.649 13.155 154.649 12.065Z" fill="#252525"/>
<path d="M2.314 41.087V28.883H3.268C3.496 28.883 3.64 28.994 3.7 29.216L3.835 30.296C4.225 29.822 4.669 29.441 5.167 29.153C5.671 28.865 6.25 28.721 6.904 28.721C7.426 28.721 7.9 28.823 8.326 29.027C8.752 29.225 9.115 29.522 9.415 29.918C9.715 30.308 9.946 30.794 10.108 31.376C10.27 31.958 10.351 32.627 10.351 33.383C10.351 34.055 10.261 34.682 10.081 35.264C9.901 35.84 9.643 36.341 9.307 36.767C8.971 37.187 8.557 37.52 8.065 37.766C7.579 38.006 7.03 38.126 6.418 38.126C5.854 38.126 5.371 38.033 4.969 37.847C4.573 37.661 4.222 37.397 3.916 37.055V41.087H2.314ZM6.373 30.017C5.851 30.017 5.392 30.137 4.996 30.377C4.606 30.617 4.246 30.956 3.916 31.394V35.804C4.21 36.2 4.531 36.479 4.879 36.641C5.233 36.803 5.626 36.884 6.058 36.884C6.904 36.884 7.555 36.581 8.011 35.975C8.467 35.369 8.695 34.505 8.695 33.383C8.695 32.789 8.641 32.279 8.533 31.853C8.431 31.427 8.281 31.079 8.083 30.809C7.885 30.533 7.642 30.332 7.354 30.206C7.066 30.08 6.739 30.017 6.373 30.017ZM12.2456 38V28.883H13.1636C13.3376 28.883 13.4576 28.916 13.5236 28.982C13.5896 29.048 13.6346 29.162 13.6586 29.324L13.7666 30.746C14.0786 30.11 14.4626 29.615 14.9186 29.261C15.3806 28.901 15.9206 28.721 16.5386 28.721C16.7906 28.721 17.0186 28.751 17.2226 28.811C17.4266 28.865 17.6156 28.943 17.7896 29.045L17.5826 30.242C17.5406 30.392 17.4476 30.467 17.3036 30.467C17.2196 30.467 17.0906 30.44 16.9166 30.386C16.7426 30.326 16.4996 30.296 16.1876 30.296C15.6296 30.296 15.1616 30.458 14.7836 30.782C14.4116 31.106 14.0996 31.577 13.8476 32.195V38H12.2456ZM23.1144 28.739C23.6604 28.739 24.1644 28.832 24.6264 29.018C25.0884 29.198 25.4874 29.462 25.8234 29.81C26.1594 30.152 26.4204 30.578 26.6064 31.088C26.7984 31.592 26.8944 32.168 26.8944 32.816C26.8944 33.068 26.8674 33.236 26.8134 33.32C26.7594 33.404 26.6574 33.446 26.5074 33.446H20.4414C20.4534 34.022 20.5314 34.523 20.6754 34.949C20.8194 35.375 21.0174 35.732 21.2694 36.02C21.5214 36.302 21.8214 36.515 22.1694 36.659C22.5174 36.797 22.9074 36.866 23.3394 36.866C23.7414 36.866 24.0864 36.821 24.3744 36.731C24.6684 36.635 24.9204 36.533 25.1304 36.425C25.3404 36.317 25.5144 36.218 25.6524 36.128C25.7964 36.032 25.9194 35.984 26.0214 35.984C26.1534 35.984 26.2554 36.035 26.3274 36.137L26.7774 36.722C26.5794 36.962 26.3424 37.172 26.0664 37.352C25.7904 37.526 25.4934 37.67 25.1754 37.784C24.8634 37.898 24.5394 37.982 24.2034 38.036C23.8674 38.096 23.5344 38.126 23.2044 38.126C22.5744 38.126 21.9924 38.021 21.4584 37.811C20.9304 37.595 20.4714 37.283 20.0814 36.875C19.6974 36.461 19.3974 35.951 19.1814 35.345C18.9654 34.739 18.8574 34.043 18.8574 33.257C18.8574 32.621 18.9534 32.027 19.1454 31.475C19.3434 30.923 19.6254 30.446 19.9914 30.044C20.3574 29.636 20.8044 29.318 21.3324 29.09C21.8604 28.856 22.4544 28.739 23.1144 28.739ZM23.1504 29.918C22.3764 29.918 21.7674 30.143 21.3234 30.593C20.8794 31.037 20.6034 31.655 20.4954 32.447H25.4544C25.4544 32.075 25.4034 31.736 25.3014 31.43C25.1994 31.118 25.0494 30.851 24.8514 30.629C24.6534 30.401 24.4104 30.227 24.1224 30.107C23.8404 29.981 23.5164 29.918 23.1504 29.918ZM28.9449 38V28.883H29.8989C30.1269 28.883 30.2709 28.994 30.3309 29.216L30.4479 30.152C30.7839 29.738 31.1589 29.399 31.5729 29.135C31.9929 28.871 32.4789 28.739 33.0309 28.739C33.6489 28.739 34.1469 28.91 34.5249 29.252C34.9089 29.594 35.1849 30.056 35.3529 30.638C35.4789 30.308 35.6439 30.023 35.8479 29.783C36.0579 29.543 36.2919 29.345 36.5499 29.189C36.8079 29.033 37.0809 28.919 37.3689 28.847C37.6629 28.775 37.9599 28.739 38.2599 28.739C38.7399 28.739 39.1659 28.817 39.5379 28.973C39.9159 29.123 40.2339 29.345 40.4919 29.639C40.7559 29.933 40.9569 30.296 41.0949 30.728C41.2329 31.154 41.3019 31.643 41.3019 32.195V38H39.6999V32.195C39.6999 31.481 39.5439 30.941 39.2319 30.575C38.9199 30.203 38.4669 30.017 37.8729 30.017C37.6089 30.017 37.3569 30.065 37.1169 30.161C36.8829 30.251 36.6759 30.386 36.4959 30.566C36.3159 30.746 36.1719 30.974 36.0639 31.25C35.9619 31.52 35.9109 31.835 35.9109 32.195V38H34.3089V32.195C34.3089 31.463 34.1619 30.917 33.8679 30.557C33.5739 30.197 33.1449 30.017 32.5809 30.017C32.1849 30.017 31.8159 30.125 31.4739 30.341C31.1379 30.551 30.8289 30.839 30.5469 31.205V38H28.9449ZM45.5101 28.883V38H43.9081V28.883H45.5101ZM45.8701 26.021C45.8701 26.177 45.8371 26.324 45.7711 26.462C45.7111 26.594 45.6271 26.714 45.5191 26.822C45.4171 26.924 45.2971 27.005 45.1591 27.065C45.0211 27.125 44.8741 27.155 44.7181 27.155C44.5621 27.155 44.4151 27.125 44.2771 27.065C44.1451 27.005 44.0251 26.924 43.9171 26.822C43.8151 26.714 43.7341 26.594 43.6741 26.462C43.6141 26.324 43.5841 26.177 43.5841 26.021C43.5841 25.865 43.6141 25.718 43.6741 25.58C43.7341 25.436 43.8151 25.313 43.9171 25.211C44.0251 25.103 44.1451 25.019 44.2771 24.959C44.4151 24.899 44.5621 24.869 44.7181 24.869C44.8741 24.869 45.0211 24.899 45.1591 24.959C45.2971 25.019 45.4171 25.103 45.5191 25.211C45.6271 25.313 45.7111 25.436 45.7711 25.58C45.8371 25.718 45.8701 25.865 45.8701 26.021ZM49.7195 28.883V34.697C49.7195 35.387 49.8785 35.921 50.1965 36.299C50.5145 36.677 50.9945 36.866 51.6365 36.866C52.1045 36.866 52.5455 36.755 52.9595 36.533C53.3735 36.311 53.7545 36.002 54.1025 35.606V28.883H55.7045V38H54.7505C54.5225 38 54.3785 37.889 54.3185 37.667L54.1925 36.686C53.7965 37.124 53.3525 37.478 52.8605 37.748C52.3685 38.012 51.8045 38.144 51.1685 38.144C50.6705 38.144 50.2295 38.063 49.8455 37.901C49.4675 37.733 49.1495 37.499 48.8915 37.199C48.6335 36.899 48.4385 36.536 48.3065 36.11C48.1805 35.684 48.1175 35.213 48.1175 34.697V28.883H49.7195ZM58.3355 38V28.883H59.2895C59.5175 28.883 59.6615 28.994 59.7215 29.216L59.8385 30.152C60.1745 29.738 60.5495 29.399 60.9635 29.135C61.3835 28.871 61.8695 28.739 62.4215 28.739C63.0395 28.739 63.5375 28.91 63.9155 29.252C64.2995 29.594 64.5755 30.056 64.7435 30.638C64.8695 30.308 65.0345 30.023 65.2385 29.783C65.4485 29.543 65.6825 29.345 65.9405 29.189C66.1985 29.033 66.4715 28.919 66.7595 28.847C67.0535 28.775 67.3505 28.739 67.6505 28.739C68.1305 28.739 68.5565 28.817 68.9285 28.973C69.3065 29.123 69.6245 29.345 69.8825 29.639C70.1465 29.933 70.3475 30.296 70.4855 30.728C70.6235 31.154 70.6925 31.643 70.6925 32.195V38H69.0905V32.195C69.0905 31.481 68.9345 30.941 68.6225 30.575C68.3105 30.203 67.8575 30.017 67.2635 30.017C66.9995 30.017 66.7475 30.065 66.5075 30.161C66.2735 30.251 66.0665 30.386 65.8865 30.566C65.7065 30.746 65.5625 30.974 65.4545 31.25C65.3525 31.52 65.3015 31.835 65.3015 32.195V38H63.6995V32.195C63.6995 31.463 63.5525 30.917 63.2585 30.557C62.9645 30.197 62.5355 30.017 61.9715 30.017C61.5755 30.017 61.2065 30.125 60.8645 30.341C60.5285 30.551 60.2195 30.839 59.9375 31.205V38H58.3355ZM83.0162 38C82.7882 38 82.6442 37.889 82.5842 37.667L82.4402 36.56C82.0502 37.034 81.6032 37.415 81.0992 37.703C80.6012 37.985 80.0282 38.126 79.3802 38.126C78.8582 38.126 78.3842 38.027 77.9582 37.829C77.5322 37.625 77.1692 37.328 76.8692 36.938C76.5692 36.548 76.3382 36.062 76.1762 35.48C76.0142 34.898 75.9332 34.229 75.9332 33.473C75.9332 32.801 76.0232 32.177 76.2032 31.601C76.3832 31.019 76.6412 30.515 76.9772 30.089C77.3192 29.663 77.7332 29.33 78.2192 29.09C78.7052 28.844 79.2572 28.721 79.8752 28.721C80.4332 28.721 80.9102 28.817 81.3062 29.009C81.7022 29.195 82.0562 29.459 82.3682 29.801V24.743H83.9702V38H83.0162ZM79.9112 36.83C80.4332 36.83 80.8892 36.71 81.2792 36.47C81.6752 36.23 82.0382 35.891 82.3682 35.453V31.043C82.0742 30.647 81.7502 30.371 81.3962 30.215C81.0482 30.053 80.6612 29.972 80.2352 29.972C79.3832 29.972 78.7292 30.275 78.2732 30.881C77.8172 31.487 77.5892 32.351 77.5892 33.473C77.5892 34.067 77.6402 34.577 77.7422 35.003C77.8442 35.423 77.9942 35.771 78.1922 36.047C78.3902 36.317 78.6332 36.515 78.9212 36.641C79.2092 36.767 79.5392 36.83 79.9112 36.83ZM86.6538 38V28.883H87.5718C87.7458 28.883 87.8658 28.916 87.9318 28.982C87.9978 29.048 88.0428 29.162 88.0668 29.324L88.1748 30.746C88.4868 30.11 88.8708 29.615 89.3268 29.261C89.7888 28.901 90.3288 28.721 90.9468 28.721C91.1988 28.721 91.4268 28.751 91.6308 28.811C91.8348 28.865 92.0238 28.943 92.1978 29.045L91.9908 30.242C91.9488 30.392 91.8558 30.467 91.7118 30.467C91.6278 30.467 91.4988 30.44 91.3248 30.386C91.1508 30.326 90.9078 30.296 90.5958 30.296C90.0378 30.296 89.5698 30.458 89.1918 30.782C88.8198 31.106 88.5078 31.577 88.2558 32.195V38H86.6538ZM95.2996 28.883V34.697C95.2996 35.387 95.4586 35.921 95.7766 36.299C96.0946 36.677 96.5746 36.866 97.2166 36.866C97.6846 36.866 98.1256 36.755 98.5396 36.533C98.9536 36.311 99.3346 36.002 99.6826 35.606V28.883H101.285V38H100.331C100.103 38 99.9586 37.889 99.8986 37.667L99.7726 36.686C99.3766 37.124 98.9326 37.478 98.4406 37.748C97.9486 38.012 97.3846 38.144 96.7486 38.144C96.2506 38.144 95.8096 38.063 95.4256 37.901C95.0476 37.733 94.7296 37.499 94.4716 37.199C94.2136 36.899 94.0186 36.536 93.8866 36.11C93.7606 35.684 93.6976 35.213 93.6976 34.697V28.883H95.2996ZM103.916 41.087V28.883H104.87C105.098 28.883 105.242 28.994 105.302 29.216L105.437 30.296C105.827 29.822 106.271 29.441 106.769 29.153C107.273 28.865 107.852 28.721 108.506 28.721C109.028 28.721 109.502 28.823 109.928 29.027C110.354 29.225 110.717 29.522 111.017 29.918C111.317 30.308 111.548 30.794 111.71 31.376C111.872 31.958 111.953 32.627 111.953 33.383C111.953 34.055 111.863 34.682 111.683 35.264C111.503 35.84 111.245 36.341 110.909 36.767C110.573 37.187 110.159 37.52 109.667 37.766C109.181 38.006 108.632 38.126 108.02 38.126C107.456 38.126 106.973 38.033 106.571 37.847C106.175 37.661 105.824 37.397 105.518 37.055V41.087H103.916ZM107.975 30.017C107.453 30.017 106.994 30.137 106.598 30.377C106.208 30.617 105.848 30.956 105.518 31.394V35.804C105.812 36.2 106.133 36.479 106.481 36.641C106.835 36.803 107.228 36.884 107.66 36.884C108.506 36.884 109.157 36.581 109.613 35.975C110.069 35.369 110.297 34.505 110.297 33.383C110.297 32.789 110.243 32.279 110.135 31.853C110.033 31.427 109.883 31.079 109.685 30.809C109.487 30.533 109.244 30.332 108.956 30.206C108.668 30.08 108.341 30.017 107.975 30.017ZM120.543 38H119.832C119.676 38 119.55 37.976 119.454 37.928C119.358 37.88 119.295 37.778 119.265 37.622L119.085 36.776C118.845 36.992 118.611 37.187 118.383 37.361C118.155 37.529 117.915 37.673 117.663 37.793C117.411 37.907 117.141 37.994 116.853 38.054C116.571 38.114 116.256 38.144 115.908 38.144C115.554 38.144 115.221 38.096 114.909 38C114.603 37.898 114.336 37.748 114.108 37.55C113.88 37.352 113.697 37.103 113.559 36.803C113.427 36.497 113.361 36.137 113.361 35.723C113.361 35.363 113.46 35.018 113.658 34.688C113.856 34.352 114.174 34.055 114.612 33.797C115.056 33.539 115.635 33.329 116.349 33.167C117.063 32.999 117.936 32.903 118.968 32.879V32.168C118.968 31.46 118.815 30.926 118.509 30.566C118.209 30.2 117.762 30.017 117.168 30.017C116.778 30.017 116.448 30.068 116.178 30.17C115.914 30.266 115.683 30.377 115.485 30.503C115.293 30.623 115.125 30.734 114.981 30.836C114.843 30.932 114.705 30.98 114.567 30.98C114.459 30.98 114.363 30.953 114.279 30.899C114.201 30.839 114.138 30.767 114.09 30.683L113.802 30.17C114.306 29.684 114.849 29.321 115.431 29.081C116.013 28.841 116.658 28.721 117.366 28.721C117.876 28.721 118.329 28.805 118.725 28.973C119.121 29.141 119.454 29.375 119.724 29.675C119.994 29.975 120.198 30.338 120.336 30.764C120.474 31.19 120.543 31.658 120.543 32.168V38ZM116.385 37.019C116.667 37.019 116.925 36.992 117.159 36.938C117.393 36.878 117.612 36.797 117.816 36.695C118.026 36.587 118.224 36.458 118.41 36.308C118.602 36.158 118.788 35.987 118.968 35.795V33.896C118.23 33.92 117.603 33.98 117.087 34.076C116.571 34.166 116.151 34.286 115.827 34.436C115.503 34.586 115.266 34.763 115.116 34.967C114.972 35.171 114.9 35.399 114.9 35.651C114.9 35.891 114.939 36.098 115.017 36.272C115.095 36.446 115.2 36.59 115.332 36.704C115.464 36.812 115.62 36.893 115.8 36.947C115.98 36.995 116.175 37.019 116.385 37.019ZM124.752 24.743V38H123.15V24.743H124.752ZM133.819 38.144C133.099 38.144 132.544 37.943 132.154 37.541C131.77 37.139 131.578 36.56 131.578 35.804V30.224H130.48C130.384 30.224 130.303 30.197 130.237 30.143C130.171 30.083 130.138 29.993 130.138 29.873V29.234L131.632 29.045L132.001 26.228C132.013 26.138 132.052 26.066 132.118 26.012C132.184 25.952 132.268 25.922 132.37 25.922H133.18V29.063H135.79V30.224H133.18V35.696C133.18 36.08 133.273 36.365 133.459 36.551C133.645 36.737 133.885 36.83 134.179 36.83C134.347 36.83 134.491 36.809 134.611 36.767C134.737 36.719 134.845 36.668 134.935 36.614C135.025 36.56 135.1 36.512 135.16 36.47C135.226 36.422 135.283 36.398 135.331 36.398C135.415 36.398 135.49 36.449 135.556 36.551L136.024 37.316C135.748 37.574 135.415 37.778 135.025 37.928C134.635 38.072 134.233 38.144 133.819 38.144ZM137.771 38V24.743H139.373V30.107C139.763 29.693 140.195 29.363 140.669 29.117C141.143 28.865 141.689 28.739 142.307 28.739C142.805 28.739 143.243 28.823 143.621 28.991C144.005 29.153 144.323 29.387 144.575 29.693C144.833 29.993 145.028 30.356 145.16 30.782C145.292 31.208 145.358 31.679 145.358 32.195V38H143.756V32.195C143.756 31.505 143.597 30.971 143.279 30.593C142.967 30.209 142.487 30.017 141.839 30.017C141.365 30.017 140.921 30.131 140.507 30.359C140.099 30.587 139.721 30.896 139.373 31.286V38H137.771ZM151.382 28.739C151.928 28.739 152.432 28.832 152.894 29.018C153.356 29.198 153.755 29.462 154.091 29.81C154.427 30.152 154.688 30.578 154.874 31.088C155.066 31.592 155.162 32.168 155.162 32.816C155.162 33.068 155.135 33.236 155.081 33.32C155.027 33.404 154.925 33.446 154.775 33.446H148.709C148.721 34.022 148.799 34.523 148.943 34.949C149.087 35.375 149.285 35.732 149.537 36.02C149.789 36.302 150.089 36.515 150.437 36.659C150.785 36.797 151.175 36.866 151.607 36.866C152.009 36.866 152.354 36.821 152.642 36.731C152.936 36.635 153.188 36.533 153.398 36.425C153.608 36.317 153.782 36.218 153.92 36.128C154.064 36.032 154.187 35.984 154.289 35.984C154.421 35.984 154.523 36.035 154.595 36.137L155.045 36.722C154.847 36.962 154.61 37.172 154.334 37.352C154.058 37.526 153.761 37.67 153.443 37.784C153.131 37.898 152.807 37.982 152.471 38.036C152.135 38.096 151.802 38.126 151.472 38.126C150.842 38.126 150.26 38.021 149.726 37.811C149.198 37.595 148.739 37.283 148.349 36.875C147.965 36.461 147.665 35.951 147.449 35.345C147.233 34.739 147.125 34.043 147.125 33.257C147.125 32.621 147.221 32.027 147.413 31.475C147.611 30.923 147.893 30.446 148.259 30.044C148.625 29.636 149.072 29.318 149.6 29.09C150.128 28.856 150.722 28.739 151.382 28.739ZM151.418 29.918C150.644 29.918 150.035 30.143 149.591 30.593C149.147 31.037 148.871 31.655 148.763 32.447H153.722C153.722 32.075 153.671 31.736 153.569 31.43C153.467 31.118 153.317 30.851 153.119 30.629C152.921 30.401 152.678 30.227 152.39 30.107C152.108 29.981 151.784 29.918 151.418 29.918ZM157.212 38V28.883H158.166C158.394 28.883 158.538 28.994 158.598 29.216L158.715 30.152C159.051 29.738 159.426 29.399 159.84 29.135C160.26 28.871 160.746 28.739 161.298 28.739C161.916 28.739 162.414 28.91 162.792 29.252C163.176 29.594 163.452 30.056 163.62 30.638C163.746 30.308 163.911 30.023 164.115 29.783C164.325 29.543 164.559 29.345 164.817 29.189C165.075 29.033 165.348 28.919 165.636 28.847C165.93 28.775 166.227 28.739 166.527 28.739C167.007 28.739 167.433 28.817 167.805 28.973C168.183 29.123 168.501 29.345 168.759 29.639C169.023 29.933 169.224 30.296 169.362 30.728C169.5 31.154 169.569 31.643 169.569 32.195V38H167.967V32.195C167.967 31.481 167.811 30.941 167.499 30.575C167.187 30.203 166.734 30.017 166.14 30.017C165.876 30.017 165.624 30.065 165.384 30.161C165.15 30.251 164.943 30.386 164.763 30.566C164.583 30.746 164.439 30.974 164.331 31.25C164.229 31.52 164.178 31.835 164.178 32.195V38H162.576V32.195C162.576 31.463 162.429 30.917 162.135 30.557C161.841 30.197 161.412 30.017 160.848 30.017C160.452 30.017 160.083 30.125 159.741 30.341C159.405 30.551 159.096 30.839 158.814 31.205V38H157.212ZM175.605 28.739C176.151 28.739 176.655 28.832 177.117 29.018C177.579 29.198 177.978 29.462 178.314 29.81C178.65 30.152 178.911 30.578 179.097 31.088C179.289 31.592 179.385 32.168 179.385 32.816C179.385 33.068 179.358 33.236 179.304 33.32C179.25 33.404 179.148 33.446 178.998 33.446H172.932C172.944 34.022 173.022 34.523 173.166 34.949C173.31 35.375 173.508 35.732 173.76 36.02C174.012 36.302 174.312 36.515 174.66 36.659C175.008 36.797 175.398 36.866 175.83 36.866C176.232 36.866 176.577 36.821 176.865 36.731C177.159 36.635 177.411 36.533 177.621 36.425C177.831 36.317 178.005 36.218 178.143 36.128C178.287 36.032 178.41 35.984 178.512 35.984C178.644 35.984 178.746 36.035 178.818 36.137L179.268 36.722C179.07 36.962 178.833 37.172 178.557 37.352C178.281 37.526 177.984 37.67 177.666 37.784C177.354 37.898 177.03 37.982 176.694 38.036C176.358 38.096 176.025 38.126 175.695 38.126C175.065 38.126 174.483 38.021 173.949 37.811C173.421 37.595 172.962 37.283 172.572 36.875C172.188 36.461 171.888 35.951 171.672 35.345C171.456 34.739 171.348 34.043 171.348 33.257C171.348 32.621 171.444 32.027 171.636 31.475C171.834 30.923 172.116 30.446 172.482 30.044C172.848 29.636 173.295 29.318 173.823 29.09C174.351 28.856 174.945 28.739 175.605 28.739ZM175.641 29.918C174.867 29.918 174.258 30.143 173.814 30.593C173.37 31.037 173.094 31.655 172.986 32.447H177.945C177.945 32.075 177.894 31.736 177.792 31.43C177.69 31.118 177.54 30.851 177.342 30.629C177.144 30.401 176.901 30.227 176.613 30.107C176.331 29.981 176.007 29.918 175.641 29.918Z" fill="#606060"/>
</svg>
