<svg width="1008" height="666" viewBox="0 0 1008 666" fill="none" xmlns="http://www.w3.org/2000/svg">
<g clip-path="url(#clip0)">
<path d="M105.248 188.773H83.4014V217.173H105.248V188.773Z" fill="#3F3D56"/>
<path d="M589.247 586.773H567.401V615.173H589.247V586.773Z" fill="#3F3D56"/>
<path d="M920.155 316.358V294.512H891.755V316.358H920.155Z" fill="#3F3D56"/>
<path d="M847.031 611.638C894.689 611.638 933.323 573.004 933.323 525.346C933.323 477.688 894.689 439.054 847.031 439.054C799.373 439.054 760.739 477.688 760.739 525.346C760.739 573.004 799.373 611.638 847.031 611.638Z" fill="#2F2E41"/>
<path d="M880.36 643.515L906.156 638.845L897.789 584.981L871.993 589.651L880.36 643.515Z" fill="#2F2E41"/>
<path d="M828.768 645.209L854.564 640.539L846.197 594.321L820.401 598.991L828.768 645.209Z" fill="#2F2E41"/>
<path d="M842.461 654.935C851.669 647.137 856.762 638.017 853.838 634.565C850.914 631.112 841.08 634.634 831.872 642.432C822.665 650.229 817.572 659.349 820.496 662.802C823.42 666.254 833.254 662.732 842.461 654.935Z" fill="#2F2E41"/>
<path d="M892.979 653.436C902.186 645.638 907.279 636.518 904.355 633.066C901.431 629.613 891.597 633.135 882.39 640.933C873.183 648.73 868.089 657.85 871.013 661.303C873.937 664.756 883.772 661.233 892.979 653.436Z" fill="#2F2E41"/>
<path d="M840.99 533.731C857.278 533.731 870.482 520.526 870.482 504.238C870.482 487.95 857.278 474.746 840.99 474.746C824.702 474.746 811.498 487.95 811.498 504.238C811.498 520.526 824.702 533.731 840.99 533.731Z" fill="white"/>
<path d="M828.869 503.498C834.298 503.498 838.699 499.096 838.699 493.667C838.699 488.238 834.298 483.836 828.869 483.836C823.439 483.836 819.038 488.238 819.038 493.667C819.038 499.096 823.439 503.498 828.869 503.498Z" fill="#3F3D56"/>
<path d="M915.104 431.469C916.401 399.522 888.868 372.463 853.606 371.031C818.344 369.599 788.707 394.335 787.409 426.282C786.111 458.229 810.623 465.487 845.885 466.92C881.147 468.352 913.806 463.416 915.104 431.469Z" fill="#F26C4F"/>
<path d="M809.408 519.265C811.079 511.973 793.605 501.746 770.378 496.422C747.152 491.098 726.968 492.694 725.297 499.985C723.625 507.277 741.099 517.503 764.326 522.827C787.553 528.151 807.736 526.556 809.408 519.265Z" fill="#2F2E41"/>
<path d="M978.796 547.434C980.467 540.142 962.993 529.915 939.767 524.591C916.54 519.267 896.356 520.863 894.685 528.154C893.014 535.446 910.488 545.672 933.714 550.996C956.941 556.32 977.125 554.725 978.796 547.434Z" fill="#2F2E41"/>
<path d="M870.731 559.353C871.193 561.894 871.15 564.502 870.603 567.026C870.057 569.551 869.019 571.943 867.547 574.066C866.076 576.189 864.201 578.002 862.029 579.4C859.857 580.798 857.431 581.755 854.889 582.215C852.347 582.675 849.74 582.63 847.215 582.082C844.691 581.534 842.3 580.494 840.177 579.021C838.055 577.548 836.244 575.672 834.847 573.499C833.451 571.326 832.496 568.899 832.037 566.357C830.103 555.672 838.364 551.891 849.049 549.957C859.735 548.023 868.797 548.667 870.731 559.353Z" fill="white"/>
<path d="M398.526 582.508L395.526 621.508L424.526 624.508L417.526 577.508L398.526 582.508Z" fill="#FFB9B9"/>
<path d="M297.487 227.355H297.487C322.206 234.972 335.392 263.386 326.939 290.819L316.198 325.673L305.479 322.369L303.252 307.543L300.824 320.935L231.924 299.703L229.9 286.225L227.693 298.399L219.935 296.009L228.369 268.642C238.096 237.074 269.042 218.589 297.487 227.355Z" fill="#2F2E41"/>
<path d="M259.095 331.966C256.861 331.595 254.573 331.696 252.38 332.263C250.187 332.829 248.137 333.848 246.361 335.254C244.585 336.66 243.124 338.423 242.07 340.428C241.016 342.433 240.394 344.636 240.243 346.896C239.812 352.939 241.897 360.013 251.265 365.252C271.273 376.442 314.661 400.838 314.661 400.838L397.445 416.736C397.445 416.736 439.278 450.117 444.519 431.131C449.76 412.145 404.825 400.553 404.825 400.553L328.771 381.049L280.31 345.996C280.31 345.996 271.429 334.143 259.095 331.966Z" fill="#FFB9B9"/>
<path d="M232.636 409.747L240.956 433.196L290.881 421.093L278.021 403.695L232.636 409.747Z" fill="#FFB9B9"/>
<path d="M99.125 630.247L61.304 626.464L87.779 600.746L106.69 613.605L99.125 630.247Z" fill="#FFB9B9"/>
<path d="M288.744 305.833C305.899 305.833 319.807 291.926 319.807 274.77C319.807 257.615 305.899 243.707 288.744 243.707C271.588 243.707 257.681 257.615 257.681 274.77C257.681 291.926 271.588 305.833 288.744 305.833Z" fill="#FFB9B9"/>
<path d="M264.406 279.64C264.406 279.64 247.008 300.064 237.931 303.09C228.853 306.115 206.16 334.86 217.507 353.771C228.853 372.681 270.457 349.232 270.457 349.232L268.944 330.321C268.944 330.321 286.342 300.064 290.124 297.795C293.907 295.525 264.406 279.64 264.406 279.64Z" fill="#FFB9B9"/>
<path d="M261.381 316.162C249.816 298.748 222.988 301.864 216.334 321.681C216.215 322.034 216.102 322.392 215.994 322.757C209.943 343.181 219.02 377.977 219.02 377.977L232.636 418.824C232.636 418.824 268.188 402.182 293.907 430.17L290.124 401.426C290.124 401.426 300.714 377.22 287.099 359.822C278.433 348.75 270.381 329.712 261.381 316.162Z" fill="#575A89"/>
<path d="M82.4838 624.952L80.9709 636.298C80.9709 636.298 31.0464 626.464 20.4563 635.542C9.86628 644.619 9.86628 650.67 1.54553 644.619C-1.99079 642.047 1.03115 635.786 5.67559 629.436C13.0309 619.474 22.697 611.448 33.8418 606.049C46.3257 599.937 63.573 591.056 63.573 588.643C63.573 584.861 77.1887 573.514 82.4838 579.566C87.7788 585.617 97.6124 602.259 97.6124 602.259L82.4838 624.952Z" fill="#2F2E41"/>
<path d="M393.857 603.508C393.857 603.508 382.769 642.819 386.801 644.835C390.833 646.851 398.897 652.899 410.992 652.899C418.139 652.899 428.806 656.77 436.337 659.938C445.118 663.689 454.655 665.329 464.184 664.728C470.533 664.291 475.931 662.802 475.502 658.947C474.494 649.875 455.343 647.859 455.343 647.859L435.184 621.652C435.184 621.652 431.656 605.02 428.632 605.02C426.984 605.099 425.367 604.56 424.096 603.508L393.857 603.508Z" fill="#2F2E41"/>
<path d="M280.547 237.117C283.592 234.888 287.109 233.391 290.827 232.742C294.544 232.093 298.36 232.309 301.981 233.373L302.859 233.644C319.802 238.865 328.812 258.428 322.984 277.34V277.34L317.307 275.591L318.541 268.33L315.046 274.894L281.376 264.518L280.375 257.745L279.261 263.866L272.637 261.825C264.815 276.223 264.526 292.942 271.769 311.982L260.486 308.504L258.483 294.958L256.254 307.201L234.745 300.572L238.883 272.11C245.15 251.771 262.283 238.166 280.547 237.117Z" fill="#2F2E41"/>
<path d="M738.608 535H418.608V0H738.608V535ZM420.608 533H736.608V2H420.608V533Z" fill="#3F3D56"/>
<path d="M1007.53 662.841H44.0195V665.082H1007.53V662.841Z" fill="#3F3D56"/>
<path d="M699.608 281H457.608V59H699.608V281ZM459.608 279H697.608V61H459.608V279Z" fill="#3F3D56"/>
<path d="M459.315 222.139L457.901 220.725L533.324 145.302L577.608 189.586L697.401 69.793L698.815 71.207L577.608 192.414L533.324 148.13L459.315 222.139Z" fill="#3F3D56"/>
<path d="M533.608 162C541.892 162 548.608 155.284 548.608 147C548.608 138.716 541.892 132 533.608 132C525.324 132 518.608 138.716 518.608 147C518.608 155.284 525.324 162 533.608 162Z" fill="#F26C4F"/>
<path d="M578.608 203C586.892 203 593.608 196.284 593.608 188C593.608 179.716 586.892 173 578.608 173C570.324 173 563.608 179.716 563.608 188C563.608 196.284 570.324 203 578.608 203Z" fill="#F26C4F"/>
<path d="M698.608 85C706.892 85 713.608 78.2843 713.608 70C713.608 61.7157 706.892 55 698.608 55C690.324 55 683.608 61.7157 683.608 70C683.608 78.2843 690.324 85 698.608 85Z" fill="#F26C4F"/>
<path d="M669.608 343H487.608V361H669.608V343Z" fill="#3F3D56"/>
<path d="M620.608 491H536.608V407H593.608V409H538.608V489H618.608V449H620.608V491Z" fill="#3F3D56"/>
<path d="M578.175 469.09L560.408 445.4L566.808 440.6L579.041 456.91L635.28 400.672L640.936 406.328L578.175 469.09Z" fill="#F26C4F"/>
<path d="M294.285 432.061C294.285 432.061 276.13 407.856 239.065 422.228L232.257 441.139C232.257 441.139 192.923 472.152 214.859 519.807L213.347 590.912L207.295 611.336L97.6124 602.259L93.8303 637.054L113.498 638.567C113.498 638.567 224.693 682.44 242.091 655.209C259.489 627.977 295.798 520.564 295.798 520.564L389.979 534.667C389.979 534.667 387.223 564.142 390.249 567.924C393.274 571.706 391.762 587.591 393.274 590.617C394.787 593.643 393.526 601.508 393.526 601.508L424.775 600.476V585.348C424.775 585.348 428.557 564.924 428.557 559.629C428.557 554.334 451.25 484.742 411.916 478.691C372.581 472.639 304.875 461.562 304.875 461.562L294.285 432.061Z" fill="#2F2E41"/>
<path d="M258.943 313.826C257.987 311.39 256.531 309.181 254.67 307.342C252.809 305.502 250.583 304.072 248.136 303.144C245.69 302.216 243.076 301.811 240.463 301.954C237.85 302.097 235.295 302.785 232.964 303.974C226.716 307.127 220.935 313.387 221.289 325.783C222.045 352.258 223.558 409.747 223.558 409.747L256.841 501.275C256.841 501.275 248.521 562.546 270.457 556.494C292.394 550.443 277.265 499.006 277.265 499.006L251.546 412.016L257.598 343.181C257.598 343.181 264.093 327.349 258.943 313.826Z" fill="#FFB9B9"/>
</g>
<defs>
<clipPath id="clip0">
<rect width="1007.53" height="665.082" fill="white"/>
</clipPath>
</defs>
</svg>
