<svg width="188" height="30" viewBox="0 0 188 30" fill="none" xmlns="http://www.w3.org/2000/svg">
<path d="M9.84 21.92H21.2V29H2.98023e-08V22.32L11.2 7.72H2.98023e-08V0.68H21.2V7.36L9.84 21.92ZM33.8753 0.68V16.64C33.8753 17.9467 34.1553 18.9867 34.7153 19.76C35.302 20.5067 36.2353 20.88 37.5153 20.88C38.7953 20.88 39.742 20.5067 40.3553 19.76C40.9686 18.9867 41.2753 17.9467 41.2753 16.64V0.68H50.1153V16.64C50.1153 19.3333 49.5553 21.64 48.4353 23.56C47.3153 25.4533 45.782 26.88 43.8353 27.84C41.8886 28.8 39.7153 29.28 37.3153 29.28C34.9153 29.28 32.782 28.8 30.9153 27.84C29.0753 26.88 27.6353 25.4533 26.5953 23.56C25.5553 21.6667 25.0353 19.36 25.0353 16.64V0.68H33.8753ZM61.3853 0.68L67.2253 20.16L73.0253 0.68H82.4653L72.9453 29H61.4653L51.9453 0.68H61.3853ZM93.3331 0.68V29H84.4531V0.68H93.3331Z" fill="#F26C4F"/>
<path d="M106.224 20V29H97.3438V0.68H109.744C113.21 0.68 115.864 1.56 117.704 3.32C119.57 5.08 120.504 7.44 120.504 10.4C120.504 12.1867 120.09 13.8133 119.264 15.28C118.437 16.72 117.21 17.8667 115.584 18.72C113.984 19.5733 112.037 20 109.744 20H106.224ZM108.744 13C110.584 13 111.504 12.1333 111.504 10.4C111.504 8.66667 110.584 7.8 108.744 7.8H106.224V13H108.744ZM137.56 29L132.2 18.84V29H123.32V0.68H136.52C138.814 0.68 140.774 1.09333 142.4 1.92C144.027 2.72 145.24 3.82667 146.04 5.24C146.867 6.62666 147.28 8.2 147.28 9.96C147.28 11.8533 146.747 13.5333 145.68 15C144.64 16.4667 143.134 17.52 141.16 18.16L147.32 29H137.56ZM132.2 12.92H135.72C136.574 12.92 137.214 12.7333 137.64 12.36C138.067 11.96 138.28 11.3467 138.28 10.52C138.28 9.77333 138.054 9.18667 137.6 8.76C137.174 8.33333 136.547 8.12 135.72 8.12H132.2V12.92ZM163.917 0.199999C166.584 0.199999 169.024 0.826665 171.237 2.08C173.451 3.30667 175.197 5.02667 176.477 7.24C177.784 9.45333 178.437 11.9467 178.437 14.72C178.437 17.4933 177.784 19.9867 176.477 22.2C175.197 24.4133 173.437 26.1467 171.197 27.4C168.984 28.6533 166.557 29.28 163.917 29.28C161.251 29.28 158.797 28.6533 156.557 27.4C154.344 26.1467 152.584 24.4133 151.277 22.2C149.971 19.9867 149.317 17.4933 149.317 14.72C149.317 11.9467 149.971 9.45333 151.277 7.24C152.584 5.02667 154.344 3.30667 156.557 2.08C158.797 0.826665 161.251 0.199999 163.917 0.199999ZM163.917 8.4C162.131 8.4 160.757 8.97333 159.797 10.12C158.837 11.24 158.357 12.7733 158.357 14.72C158.357 16.64 158.837 18.1733 159.797 19.32C160.757 20.44 162.131 21 163.917 21C165.677 21 167.037 20.44 167.997 19.32C168.957 18.1733 169.437 16.64 169.437 14.72C169.437 12.7733 168.957 11.24 167.997 10.12C167.037 8.97333 165.677 8.4 163.917 8.4Z" fill="white"/>
<path d="M187.92 20.52V29H179.12V20.52H187.92Z" fill="#F4399E"/>
</svg>
