<svg width="32" height="27" viewBox="0 0 32 27" fill="none" xmlns="http://www.w3.org/2000/svg">
<path d="M29.1579 0.315788V3.17105L2.36842 8.03947C1.75537 8.15157 1.202 8.47759 0.806839 8.9595C0.411673 9.44141 0.200361 10.0479 0.210525 10.6711V16.3816C0.200361 17.0047 0.411673 17.6112 0.806839 18.0931C1.202 18.575 1.75537 18.9011 2.36842 19.0132L5.47368 19.4737V24C5.47368 24.6979 5.75094 25.3673 6.24445 25.8608C6.73797 26.3543 7.40732 26.6316 8.10526 26.6316H18.6316C19.3295 26.6316 19.9989 26.3543 20.4924 25.8608C20.9859 25.3673 21.2632 24.6979 21.2632 24V22.3421L29.1579 23.7763V26.6316H31.7895V0.315788H29.1579ZM18.6316 24H8.10526V19.9605L18.6316 21.8684V24ZM2.8421 16.3289V10.6184L29.1579 5.8421V21.1053L2.8421 16.3289Z" fill="white"/>
</svg>
