<svg width="30" height="32" viewBox="0 0 30 32" fill="none" xmlns="http://www.w3.org/2000/svg">
<path d="M23.2727 10.1818C23.2727 7.8672 22.3533 5.64738 20.7166 4.0107C19.0799 2.37402 16.8601 1.45454 14.5455 1.45454C12.2309 1.45454 10.011 2.37402 8.37436 4.0107C6.73767 5.64738 5.8182 7.8672 5.8182 10.1818C5.8182 20.3636 1.45456 23.2727 1.45456 23.2727H27.6364C27.6364 23.2727 23.2727 20.3636 23.2727 10.1818Z" stroke="white" stroke-width="2" stroke-linecap="round" stroke-linejoin="round"/>
<path d="M17.0618 29.0909C16.8061 29.5318 16.439 29.8977 15.9974 30.152C15.5558 30.4064 15.0551 30.5403 14.5454 30.5403C14.0358 30.5403 13.5351 30.4064 13.0935 30.152C12.6519 29.8977 12.2848 29.5318 12.0291 29.0909" stroke="white" stroke-width="2" stroke-linecap="round" stroke-linejoin="round"/>
</svg>
